<svg class="animated" id="freepik_stories-sailor" xmlns="http://www.w3.org/2000/svg" viewBox="0 0 500 500" version="1.1" xmlns:xlink="http://www.w3.org/1999/xlink" xmlns:svgjs="http://svgjs.com/svgjs"><style>svg#freepik_stories-sailor:not(.animated) .animable {opacity: 0;}svg#freepik_stories-sailor.animated #freepik--background-simple--inject-47 {animation: 1s 1 forwards cubic-bezier(.36,-0.01,.5,1.38) zoomOut,6s Infinite  linear wind;animation-delay: 0s,1s;}svg#freepik_stories-sailor.animated #freepik--Shadow--inject-47 {animation: 1s 1 forwards cubic-bezier(.36,-0.01,.5,1.38) slideRight;animation-delay: 0s;}svg#freepik_stories-sailor.animated #freepik--ship-2--inject-47 {animation: 1s 1 forwards cubic-bezier(.36,-0.01,.5,1.38) zoomIn,6s Infinite  linear floating;animation-delay: 0s,2s;}svg#freepik_stories-sailor.animated #freepik--bird-2--inject-47 {animation: 1s 1 forwards cubic-bezier(.36,-0.01,.5,1.38) slideRight,6s Infinite  linear floating;animation-delay: 0s,1s;}svg#freepik_stories-sailor.animated #freepik--bird-1--inject-47 {animation: 1s 1 forwards cubic-bezier(.36,-0.01,.5,1.38) zoomIn,6s Infinite  linear floating;animation-delay: 0s,1.5s;}svg#freepik_stories-sailor.animated #freepik--ship-1--inject-47 {animation: 1s 1 forwards cubic-bezier(.36,-0.01,.5,1.38) zoomIn;animation-delay: 0s;}svg#freepik_stories-sailor.animated #freepik--Character--inject-47 {animation: 1s 1 forwards cubic-bezier(.36,-0.01,.5,1.38) zoomIn;animation-delay: 0s;}            @keyframes zoomOut {                0% {                    opacity: 0;                    transform: scale(1.5);                }                100% {                    opacity: 1;                    transform: scale(1);                }            }                    @keyframes wind {                0% {                    transform: rotate( 0deg );                }                25% {                    transform: rotate( 1deg );                }                75% {                    transform: rotate( -1deg );                }            }                    @keyframes slideRight {                0% {                    opacity: 0;                    transform: translateX(30px);                }                100% {                    opacity: 1;                    transform: translateX(0);                }            }                    @keyframes zoomIn {                0% {                    opacity: 0;                    transform: scale(0.5);                }                100% {                    opacity: 1;                    transform: scale(1);                }            }                    @keyframes floating {                0% {                    opacity: 1;                    transform: translateY(0px);                }                50% {                    transform: translateY(-10px);                }                100% {                    opacity: 1;                    transform: translateY(0px);                }            }        </style><g id="freepik--background-simple--inject-47" class="animable animator-active" style="transform-origin: 258.961px 236.163px;"><path d="M97.08,119.7C125,60.25,224.14,68.64,262.4,110.45s50.69,68.6,85.2,53,78.52-11.44,81,38.16S390.73,309.86,326.56,327.21,262.4,406,177.46,393.58c-46.31-6.76-47.37-56.86-40.83-98.3S64.7,188.65,97.08,119.7Z" style="fill: rgb(64, 123, 255); transform-origin: 258.961px 236.163px;" id="el3ifn9cvaf7y" class="animable"></path><g id="elyvfryz279il"><path d="M97.08,119.7C125,60.25,224.14,68.64,262.4,110.45s50.69,68.6,85.2,53,78.52-11.44,81,38.16S390.73,309.86,326.56,327.21,262.4,406,177.46,393.58c-46.31-6.76-47.37-56.86-40.83-98.3S64.7,188.65,97.08,119.7Z" style="fill: rgb(255, 255, 255); opacity: 0.9; transform-origin: 258.961px 236.163px;" class="animable"></path></g></g><g id="freepik--Shadow--inject-47" class="animable" style="transform-origin: 250px 416.24px;"><ellipse id="freepik--path--inject-47" cx="250" cy="416.24" rx="193.89" ry="11.32" style="fill: rgb(245, 245, 245); transform-origin: 250px 416.24px;" class="animable"></ellipse></g><g id="freepik--ship-2--inject-47" class="animable" style="transform-origin: 236.645px 358.275px;"><path d="M240.9,363.33c-7.55,0-13.37,0-13.74-.06a.5.5,0,0,1,.14-1c1,.11,32.64.05,49.2,0a.49.49,0,0,1,.51.5.51.51,0,0,1-.5.5C273.34,363.28,254.38,363.33,240.9,363.33Z" style="fill: rgb(64, 123, 255); transform-origin: 251.869px 362.798px;" id="eltx37ux2v7" class="animable"></path><path d="M228.58,366.48a.5.5,0,0,1-.5-.5V362.8a.5.5,0,0,1,.5-.5.51.51,0,0,1,.5.5V366A.51.51,0,0,1,228.58,366.48Z" style="fill: rgb(64, 123, 255); transform-origin: 228.58px 364.39px;" id="eljdfxszv4z8" class="animable"></path><path d="M232.2,366.48a.5.5,0,0,1-.5-.5V362.8a.5.5,0,0,1,.5-.5.51.51,0,0,1,.5.5V366A.51.51,0,0,1,232.2,366.48Z" style="fill: rgb(64, 123, 255); transform-origin: 232.2px 364.39px;" id="el2dqbryoexwo" class="animable"></path><path d="M235.82,366.48a.5.5,0,0,1-.5-.5V362.8a.5.5,0,0,1,1,0V366A.5.5,0,0,1,235.82,366.48Z" style="fill: rgb(64, 123, 255); transform-origin: 235.82px 364.39px;" id="ela4ifkwykgdp" class="animable"></path><path d="M239.44,366.48a.51.51,0,0,1-.5-.5V362.8a.51.51,0,0,1,.5-.5.5.5,0,0,1,.5.5V366A.5.5,0,0,1,239.44,366.48Z" style="fill: rgb(64, 123, 255); transform-origin: 239.44px 364.39px;" id="el6zruwnto4tj" class="animable"></path><path d="M243.06,366.48a.51.51,0,0,1-.5-.5V362.8a.51.51,0,0,1,.5-.5.5.5,0,0,1,.5.5V366A.5.5,0,0,1,243.06,366.48Z" style="fill: rgb(64, 123, 255); transform-origin: 243.06px 364.39px;" id="elzuzarniwmq" class="animable"></path><path d="M246.69,366.48a.5.5,0,0,1-.5-.5V362.8a.5.5,0,0,1,.5-.5.51.51,0,0,1,.5.5V366A.51.51,0,0,1,246.69,366.48Z" style="fill: rgb(64, 123, 255); transform-origin: 246.69px 364.39px;" id="elaqsthzg39ru" class="animable"></path><path d="M250.31,366.48a.5.5,0,0,1-.5-.5V362.8a.5.5,0,0,1,.5-.5.51.51,0,0,1,.5.5V366A.51.51,0,0,1,250.31,366.48Z" style="fill: rgb(64, 123, 255); transform-origin: 250.31px 364.39px;" id="eluvc9cyjsocm" class="animable"></path><path d="M253.93,366.48a.5.5,0,0,1-.5-.5V362.8a.5.5,0,0,1,1,0V366A.5.5,0,0,1,253.93,366.48Z" style="fill: rgb(64, 123, 255); transform-origin: 253.93px 364.39px;" id="el8mwakw1ixqm" class="animable"></path><path d="M257.55,366.48a.51.51,0,0,1-.5-.5V362.8a.51.51,0,0,1,.5-.5.5.5,0,0,1,.5.5V366A.5.5,0,0,1,257.55,366.48Z" style="fill: rgb(64, 123, 255); transform-origin: 257.55px 364.39px;" id="elkd2g8le4ro" class="animable"></path><path d="M261.17,366.48a.51.51,0,0,1-.5-.5V362.8a.51.51,0,0,1,.5-.5.5.5,0,0,1,.5.5V366A.5.5,0,0,1,261.17,366.48Z" style="fill: rgb(64, 123, 255); transform-origin: 261.17px 364.39px;" id="el62ail7eleub" class="animable"></path><path d="M264.8,366.48a.5.5,0,0,1-.5-.5V362.8a.5.5,0,0,1,.5-.5.51.51,0,0,1,.5.5V366A.51.51,0,0,1,264.8,366.48Z" style="fill: rgb(64, 123, 255); transform-origin: 264.8px 364.39px;" id="elwyvmk2x1auf" class="animable"></path><path d="M268.42,366.48a.5.5,0,0,1-.5-.5V362.8a.5.5,0,0,1,.5-.5.51.51,0,0,1,.5.5V366A.51.51,0,0,1,268.42,366.48Z" style="fill: rgb(64, 123, 255); transform-origin: 268.42px 364.39px;" id="el22iloojbp41" class="animable"></path><path d="M272,366.48a.5.5,0,0,1-.5-.5V362.8a.5.5,0,0,1,1,0V366A.5.5,0,0,1,272,366.48Z" style="fill: rgb(64, 123, 255); transform-origin: 272px 364.39px;" id="elarba2tk8cr5" class="animable"></path><path d="M275.66,366.48a.51.51,0,0,1-.5-.5V362.8a.51.51,0,0,1,.5-.5.5.5,0,0,1,.5.5V366A.5.5,0,0,1,275.66,366.48Z" style="fill: rgb(64, 123, 255); transform-origin: 275.66px 364.39px;" id="el37eqrhuqnyp" class="animable"></path><path d="M436.85,367.67H408.57a.51.51,0,0,1-.5-.5.5.5,0,0,1,.5-.5h28.28a.5.5,0,0,1,.5.5A.51.51,0,0,1,436.85,367.67Z" style="fill: rgb(64, 123, 255); transform-origin: 422.71px 367.17px;" id="elk22r1nk9nrj" class="animable"></path><path d="M410.65,370.87a.5.5,0,0,1-.5-.5V367.2a.5.5,0,0,1,.5-.5.5.5,0,0,1,.5.5v3.17A.5.5,0,0,1,410.65,370.87Z" style="fill: rgb(64, 123, 255); transform-origin: 410.65px 368.785px;" id="eljt855q4z4ul" class="animable"></path><path d="M414.27,370.87a.5.5,0,0,1-.5-.5V367.2a.5.5,0,0,1,1,0v3.17A.5.5,0,0,1,414.27,370.87Z" style="fill: rgb(64, 123, 255); transform-origin: 414.27px 368.785px;" id="elqrxp1iqqqfm" class="animable"></path><path d="M417.89,370.87a.5.5,0,0,1-.5-.5V367.2a.5.5,0,0,1,.5-.5.5.5,0,0,1,.5.5v3.17A.5.5,0,0,1,417.89,370.87Z" style="fill: rgb(64, 123, 255); transform-origin: 417.89px 368.785px;" id="eld2zt8f867a7" class="animable"></path><path d="M421.51,370.87a.5.5,0,0,1-.5-.5V367.2a.5.5,0,0,1,.5-.5.5.5,0,0,1,.5.5v3.17A.5.5,0,0,1,421.51,370.87Z" style="fill: rgb(64, 123, 255); transform-origin: 421.51px 368.785px;" id="elu3fy52vzqrm" class="animable"></path><path d="M425.14,370.87a.5.5,0,0,1-.5-.5V367.2a.5.5,0,0,1,.5-.5.5.5,0,0,1,.5.5v3.17A.5.5,0,0,1,425.14,370.87Z" style="fill: rgb(64, 123, 255); transform-origin: 425.14px 368.785px;" id="elgmysbnvlmcl" class="animable"></path><path d="M428.76,370.87a.5.5,0,0,1-.5-.5V367.2a.5.5,0,0,1,.5-.5.5.5,0,0,1,.5.5v3.17A.5.5,0,0,1,428.76,370.87Z" style="fill: rgb(64, 123, 255); transform-origin: 428.76px 368.785px;" id="elc9fqgcvkl8" class="animable"></path><path d="M432.38,370.87a.5.5,0,0,1-.5-.5V367.2a.5.5,0,1,1,1,0v3.17A.5.5,0,0,1,432.38,370.87Z" style="fill: rgb(64, 123, 255); transform-origin: 432.38px 368.785px;" id="el8l1y6bd61dn" class="animable"></path><path d="M436,370.87a.5.5,0,0,1-.5-.5V367.2a.5.5,0,0,1,.5-.5.5.5,0,0,1,.5.5v3.17A.5.5,0,0,1,436,370.87Z" style="fill: rgb(64, 123, 255); transform-origin: 436px 368.785px;" id="el5npxu31vcnn" class="animable"></path><polyline points="363.18 361.33 363.18 322.76 364.13 322.76 364.13 361.33" style="fill: rgb(64, 123, 255); transform-origin: 363.655px 342.045px;" id="el6d8xxy675fb" class="animable"></polyline><polyline points="423.27 387.14 423.27 348.57 424.23 348.57 424.23 387.14" style="fill: rgb(64, 123, 255); transform-origin: 423.75px 367.855px;" id="ela5lq2n07od" class="animable"></polyline><polyline points="368.38 373.79 368.38 335.22 369.33 335.22 369.33 373.79" style="fill: rgb(64, 123, 255); transform-origin: 368.855px 354.505px;" id="el7qeh7otkyok" class="animable"></polyline><rect x="364.99" y="350.52" width="5.87" height="10.81" style="fill: rgb(64, 123, 255); transform-origin: 367.925px 355.925px;" id="el86bj2iwd2bw" class="animable"></rect><rect x="333.67" y="325.66" width="3.69" height="3.16" style="fill: rgb(64, 123, 255); transform-origin: 335.515px 327.24px;" id="elwl3p53cms4" class="animable"></rect><polyline points="337.81 354.87 337.81 316.3 338.76 316.3 338.76 354.87" style="fill: rgb(64, 123, 255); transform-origin: 338.285px 335.585px;" id="el5rfrly5bhd7" class="animable"></polyline><polyline points="332.06 362.77 332.06 324.2 333.01 324.2 333.01 362.77" style="fill: rgb(64, 123, 255); transform-origin: 332.535px 343.485px;" id="el3exs9qrzld2" class="animable"></polyline><rect x="360.77" y="360.14" width="15.23" height="7.72" style="fill: rgb(64, 123, 255); transform-origin: 368.385px 364px;" id="elkjn32xx0sqe" class="animable"></rect><g id="elnqbp0n806uk"><rect x="360.77" y="360.14" width="15.23" height="7.72" style="fill: rgb(255, 255, 255); opacity: 0.2; isolation: isolate; transform-origin: 368.385px 364px;" class="animable"></rect></g><polygon points="344.91 365.24 386.88 365.24 389.45 374.98 344.91 374.98 344.91 365.24" style="fill: rgb(64, 123, 255); transform-origin: 367.18px 370.11px;" id="el8p5kjw8tbra" class="animable"></polygon><g id="ele7draf2te3"><polygon points="344.91 365.24 386.88 365.24 389.45 374.98 344.91 374.98 344.91 365.24" style="fill: rgb(255, 255, 255); opacity: 0.3; isolation: isolate; transform-origin: 367.18px 370.11px;" class="animable"></polygon></g><polygon points="340.59 353.81 340.59 328.1 330.83 328.1 328.69 353.81 340.59 353.81" style="fill: rgb(64, 123, 255); transform-origin: 334.64px 340.955px;" id="el374bqhf38uq" class="animable"></polygon><g id="elujqkuo40a6"><polygon points="340.59 353.81 340.59 328.1 330.83 328.1 328.69 353.81 340.59 353.81" style="fill: rgb(255, 255, 255); opacity: 0.2; isolation: isolate; transform-origin: 334.64px 340.955px;" class="animable"></polygon></g><polygon points="316.79 350.52 311.78 359.22 338.29 359.22 338.29 351.31 316.79 350.52" style="fill: rgb(38, 50, 56); transform-origin: 325.035px 354.87px;" id="elen6hiwoq8iu" class="animable"></polygon><polygon points="316.07 349.76 314.75 351.7 334.64 351.7 334.64 353.02 313.86 353.02 312.61 354.87 334.64 354.87 334.64 356.19 311.71 356.19 306.54 363.81 344.91 365.24 342.91 349.76 316.07 349.76" style="fill: rgb(64, 123, 255); transform-origin: 325.725px 357.5px;" id="elhq19lgaz278" class="animable"></polygon><g id="el5qpasj44jri"><polygon points="316.07 349.76 314.75 351.7 334.64 351.7 334.64 353.02 313.86 353.02 312.61 354.87 334.64 354.87 334.64 356.19 311.71 356.19 306.54 363.81 344.91 365.24 342.91 349.76 316.07 349.76" style="fill: rgb(255, 255, 255); opacity: 0.3; isolation: isolate; transform-origin: 325.725px 357.5px;" class="animable"></polygon></g><polygon points="302.29 361.33 292.26 369.77 335.78 369.77 335.78 361.86 302.29 361.33" style="fill: rgb(38, 50, 56); transform-origin: 314.02px 365.55px;" id="elvbc0d1cj8c" class="animable"></polygon><polygon points="301.54 360.29 298.41 362.77 328.18 362.77 328.18 364.09 296.74 364.09 294.41 365.94 328.18 365.94 328.18 367.25 292.74 367.25 279.64 377.62 349.83 380.42 345.83 360.29 301.54 360.29" style="fill: rgb(64, 123, 255); transform-origin: 314.735px 370.355px;" id="elhesgpi4ig4n" class="animable"></polygon><g id="elvlyd194mule"><polygon points="301.54 360.29 298.41 362.77 328.18 362.77 328.18 364.09 296.74 364.09 294.41 365.94 328.18 365.94 328.18 367.25 292.74 367.25 279.64 377.62 349.83 380.42 345.83 360.29 301.54 360.29" style="fill: rgb(255, 255, 255); opacity: 0.4; isolation: isolate; transform-origin: 314.735px 370.355px;" class="animable"></polygon></g><path d="M406.9,369.47l-6,3H288.35l-10.05-7H227.23s20,16.95,28.85,29.9H424.13l13.72-25.9Z" style="fill: rgb(64, 123, 255); transform-origin: 332.54px 380.42px;" id="el4wtceflcgjr" class="animable"></path><g id="el2rdwft9o9jn"><path d="M406.9,369.47l-6,3H288.35l-10.05-7H227.23s20,16.95,28.85,29.9H424.13l13.72-25.9Z" style="fill: rgb(255, 255, 255); opacity: 0.6; isolation: isolate; transform-origin: 332.54px 380.42px;" class="animable"></path></g><path d="M196.66,400.25s25-4,41.14-4c11.93,0,35.28-9.29,36-1.14,0,0,34.47-5.81,38.38-4s0,4.22,0,4.22S360.15,391,363.66,391s-.48,3.23-.48,3.23,30.38-4.15,33.6-3.1-1.22,3.71,1,4,30.4-5.42,33.12-4,1.48,7.22,1.48,7.22l10.35,1.89Z" style="fill: rgb(64, 123, 255); transform-origin: 319.695px 395.505px;" id="elov4mxpn9mt" class="animable"></path><g id="el50xn6ef5x2c"><path d="M196.66,400.25s25-4,41.14-4c11.93,0,35.28-9.29,36-1.14,0,0,34.47-5.81,38.38-4s0,4.22,0,4.22S360.15,391,363.66,391s-.48,3.23-.48,3.23,30.38-4.15,33.6-3.1-1.22,3.71,1,4,30.4-5.42,33.12-4,1.48,7.22,1.48,7.22l10.35,1.89Z" style="fill: rgb(255, 255, 255); opacity: 0.8; isolation: isolate; transform-origin: 319.695px 395.505px;" class="animable"></path></g><path d="M33.46,393.12h206s-19.28.8-23.51-3.82-20.47-3.08-20.47-3.08-19.1-7.39-33.67-.25-27.24-3.11-38.32-3.11S101.71,388,101.71,388a126.56,126.56,0,0,0-22.15-1.79c-13,0-49,6.95-49,6.95" style="fill: rgb(64, 123, 255); transform-origin: 135.01px 388.016px;" id="elsb9kk67r3gm" class="animable"></path><g id="ele1a5w4w3ff"><path d="M33.46,393.12h206s-19.28.8-23.51-3.82-20.47-3.08-20.47-3.08-19.1-7.39-33.67-.25-27.24-3.11-38.32-3.11S101.71,388,101.71,388a126.56,126.56,0,0,0-22.15-1.79c-13,0-49,6.95-49,6.95" style="fill: rgb(255, 255, 255); opacity: 0.8; isolation: isolate; transform-origin: 135.01px 388.016px;" class="animable"></path></g></g><g id="freepik--bird-2--inject-47" class="animable" style="transform-origin: 349.825px 227.085px;"><path d="M368.42,224.41c-2.85-1.78-14.59,10.87-20.15,12.46a19.72,19.72,0,0,0,12.21.16C366.61,234.88,371.44,226.28,368.42,224.41Z" style="fill: rgb(64, 123, 255); transform-origin: 358.807px 231.08px;" id="elz1r1lpfnujt" class="animable"></path><g id="elolggqlk0s3"><path d="M348.27,236.87a19.72,19.72,0,0,0,12.21.16c6.13-2.15,11-10.75,7.94-12.62-.67-.42-1.84,0-3.31.82C360.36,228,352.51,235.65,348.27,236.87Z" style="fill: rgb(255, 255, 255); opacity: 0.2; transform-origin: 358.815px 231.083px;" class="animable"></path></g><g id="el2gnb8erc9a8"><path d="M348.27,236.87s5,.54,5.7-.22a3.46,3.46,0,0,1,2.81-1.1c1.39,0,2-.7,1.7-2.11s1.74-.65,2.93-1.12-.14-.9-.17-1.88,2.38-1.11,2.52-1.9-.8-.61-.29-1.42,2.25-1.12,1.64-1.89C360.36,228,352.51,235.65,348.27,236.87Z" style="opacity: 0.2; isolation: isolate; transform-origin: 356.754px 231.143px;" class="animable"></path></g><path d="M377.68,222c-2.88-.63-10.05,1.37-12.25,1.12-2-.22-15.58-1.14-15.58-1.14s-7.12.6-9-.27c-7.47-3.49-18.68-5.45-18.68-5.45l11.74,6.44L322.74,222s4.82,2.21,15.31,3.51a78.42,78.42,0,0,0,11.44,5.61c8.74,3.65,15.05.86,17.13-.26,4.55-2.44,18.26-3.6,18.26-3.6l-4.14-2.42A4,4,0,0,0,377.68,222Z" style="fill: rgb(64, 123, 255); transform-origin: 353.525px 224.599px;" id="elcvwhoezprw" class="animable"></path><g id="elmsvco6c0qi"><path d="M333.91,222.67,322.74,222s4.82,2.22,15.32,3.51c0,0,.17.12.55.34a85.11,85.11,0,0,0,8.62,4.3c.7.32,1.46.63,2.26,1a22.09,22.09,0,0,0,8.77,1.82,18.14,18.14,0,0,0,8.36-2.08,33.15,33.15,0,0,1,8.52-2.35l1.58-.26h0l1.16-.17,2.49-.33c2.6-.32,4.49-.48,4.49-.48l-4.13-2.43a4,4,0,0,0-3.07-2.88c-1.89-.41-5.63.3-8.59.77a16.79,16.79,0,0,1-3.66.35c-2.2-.24-15.75-1.18-15.58-1.13h-.11c-.9.06-7.16.52-8.89-.29-1.32-.61-2.77-1.19-4.24-1.7h0a104,104,0,0,0-14.41-3.73Z" style="fill: rgb(255, 255, 255); opacity: 0.3; transform-origin: 353.52px 224.615px;" class="animable"></path></g><g id="el6gfrq6ju7y7"><path d="M369.08,222.74c1.39.28,3.19.78,3.7,1.6.7,1.09,1.12,3.17,2.37,4.19.53-.1,1.06-.18,1.58-.26h0l1.18-.18c.87-.13,1.71-.23,2.48-.33a9.23,9.23,0,0,0,.35-2.91,4,4,0,0,0-3.06-2.88C375.79,221.56,372.05,222.27,369.08,222.74Z" style="opacity: 0.2; isolation: isolate; transform-origin: 374.914px 225.189px;" class="animable"></path></g><g id="elxpk1ys7ea5q"><path d="M333.91,222.67,322.74,222s4.82,2.22,15.31,3.51a71.33,71.33,0,0,0,9.17,4.64c1.39-.43-2-2.22-3.36-3.31-1.8-1.42-1.56-1.14-.72-1.52s.05-.68-2.14-1.63-1.58-1.37-2.78-2.71a6,6,0,0,0-1.62-1h0a104,104,0,0,0-14.41-3.73Z" style="opacity: 0.2; isolation: isolate; transform-origin: 334.869px 223.2px;" class="animable"></path></g><polygon points="380.75 224.85 379.31 225.52 379.65 227.85 384.88 227.27 380.75 224.85" style="fill: rgb(38, 50, 56); transform-origin: 382.095px 226.35px;" id="elwkx3bhe2rod" class="animable"></polygon><g id="elsprg8edv3a"><path d="M338.61,225.86a85.11,85.11,0,0,0,8.62,4.3c.7.32,1.46.63,2.26,1a22.09,22.09,0,0,0,8.77,1.82,21.84,21.84,0,0,0,4-5.69s-.79-2.4-5-3.9C354.51,222.39,344.89,224.37,338.61,225.86Z" style="opacity: 0.3; isolation: isolate; transform-origin: 350.435px 228.049px;" class="animable"></path></g><path d="M362.17,223.19c-5.23-2.73-35.1,9.2-47.39,9.75a69.64,69.64,0,0,0,25.48,3C354,234.91,367.69,226.07,362.17,223.19Z" style="fill: rgb(64, 123, 255); transform-origin: 339.102px 229.443px;" id="elnri27p6gbnq" class="animable"></path><g id="elq3vaemodw7s"><path d="M314.77,232.94a69.72,69.72,0,0,0,25.49,3c13.71-1.06,27.44-9.91,21.91-12.79-1.23-.65-3.85-.47-7.28.17C343.81,225.46,324.16,232.52,314.77,232.94Z" style="fill: rgb(255, 255, 255); opacity: 0.4; transform-origin: 339.098px 229.422px;" class="animable"></path></g><g id="elj48qcafbtps"><path d="M314.77,232.94s10.26,1.8,12,1.08a12.43,12.43,0,0,1,6.34-.62c2.93.27,4.36-.36,4.44-2.05s3.92-.35,6.59-.62.1-1.07.45-2.22,5.43-.73,6.05-1.62-1.42-.89,0-1.71,5.18-.78,4.22-1.82C343.81,225.46,324.16,232.52,314.77,232.94Z" style="opacity: 0.2; isolation: isolate; transform-origin: 334.892px 228.775px;" class="animable"></path></g></g><g id="freepik--bird-1--inject-47" class="animable" style="transform-origin: 292.29px 118.953px;"><path d="M303.91,120.91s-.54-6.11-2-7.06-10.23-3.28-10.23-3.28,3.48,9.43,5.59,10.51S303.91,120.91,303.91,120.91Z" style="fill: rgb(64, 123, 255); transform-origin: 297.795px 116.045px;" id="elw9uzhvj6v5r" class="animable"></path><g id="elur9cnnzfkko"><path d="M291.71,110.58h0c.11.29,3.51,9.44,5.59,10.5a8.13,8.13,0,0,0,4.34.29,19,19,0,0,0,2.27-.46s-.54-6.11-2-7.06-9.42-3.06-10.17-3.26h-.05Z" style="fill: rgb(255, 255, 255); opacity: 0.3; transform-origin: 297.8px 116.059px;" class="animable"></path></g><g id="eld1162qbllpk"><path d="M291.71,110.58c.11.29,3.51,9.44,5.59,10.5a8.13,8.13,0,0,0,4.34.29c2-1.34-2.24-2.82-2.88-3.3s-.23-.95,0-1.29-.54-1.16-1.43-1.5-1.16-1-.95-2-4.05-2.45-4.59-2.64h-.05Z" style="opacity: 0.2; isolation: isolate; transform-origin: 296.941px 116.059px;" class="animable"></path></g><path d="M308.39,117.24c-2-.06-6.52,2.18-8,2.29s-8.93-5-10.54-5.86-15.6-2.73-15.6-2.73,9.3,9.52,15.6,9.79c0,0-4.67,1.3-6,1-5.42-1.38-13.14-1.28-13.14-1.28l8.64,2.81-7.53,1s3.49.87,10.65.41a54.25,54.25,0,0,0,8.34,2.3c6.28,1.33,10.14-1.32,11.38-2.33,2.73-2.2,11.72-4.7,11.72-4.7l-3.06-1.1A2.71,2.71,0,0,0,308.39,117.24Z" style="fill: rgb(64, 123, 255); transform-origin: 292.31px 119.138px;" id="elnyqpq97tz0i" class="animable"></path><g id="el2zy7z02bxr7"><path d="M279.3,123.22l-7.53,1s3.49.87,10.65.41a48.49,48.49,0,0,0,6.7,1.94l1.64.36c6.28,1.33,10.14-1.32,11.39-2.33a21.86,21.86,0,0,1,5.38-2.64l1-.37h0l.76-.27,1.61-.53c1.69-.55,2.93-.89,2.93-.89l-3.06-1.1a2.71,2.71,0,0,0-2.4-1.53c-1.32,0-3.72.91-5.64,1.6a11.9,11.9,0,0,1-2.39.69c-1.5.11-8.94-5-10.53-5.86-.78-.41-4.44-1.06-8-1.62-3.83-.61-7.58-1.11-7.58-1.11s6.44,6.59,12.24,9a10.6,10.6,0,0,0,3,.81h0l.36,0-.08,0c-.59.17-4.69,1.26-6,.94a27.72,27.72,0,0,0-3-.6h0a71.12,71.12,0,0,0-10.08-.67Z" style="fill: rgb(255, 255, 255); opacity: 0.4; transform-origin: 292.25px 119.133px;" class="animable"></path></g><g id="elcjwu5i5pqis"><path d="M302.76,118.84a4.43,4.43,0,0,1,2.67.6c.6.63,1.14,2,2.1,2.49l1-.37h0l.76-.27,1.61-.53a6.37,6.37,0,0,0-.13-2,2.71,2.71,0,0,0-2.4-1.53C307.08,117.2,304.68,118.15,302.76,118.84Z" style="opacity: 0.2; isolation: isolate; transform-origin: 306.844px 119.58px;" class="animable"></path></g><g id="eljjed4tat37d"><path d="M274.23,110.94s6.44,6.59,12.24,9a20.44,20.44,0,0,0,3,.81h0l.28,0c4.7.73,5.24,0,5.24,0s-1.59-.46-1.74-.46.67-.52-.36-.91-.87-.88-.87-.88a14.38,14.38,0,0,1-2.91-1.28c-.11-.31.36-.82-.92-1.08s-.05-.92-2-1.63-1.49-1.13-1.49-1.13a5.6,5.6,0,0,1-2.86-1.35C278,111.44,274.23,110.94,274.23,110.94Z" style="opacity: 0.2; isolation: isolate; transform-origin: 284.61px 116.007px;" class="animable"></path></g><g id="elm75flpbve4n"><path d="M279.3,123.22l-7.53,1s3.49.87,10.65.41a48.49,48.49,0,0,0,6.7,1.94c.87-.46-1.59-1.23-2.66-1.78-1.38-.72-1.18-.57-.67-.92s-.05-.46-1.63-.83-1.22-.71-2.2-1.45a4,4,0,0,0-1.2-.47h0a71.12,71.12,0,0,0-10.08-.67Z" style="opacity: 0.2; isolation: isolate; transform-origin: 279.991px 123.51px;" class="animable"></path></g><polygon points="310.8 118.77 309.93 119.4 310.45 120.91 313.87 119.87 310.8 118.77" style="fill: rgb(38, 50, 56); transform-origin: 311.9px 119.84px;" id="eld0bptnleo4" class="animable"></polygon></g><g id="freepik--ship-1--inject-47" class="animable" style="transform-origin: 166.3px 358.14px;"><path d="M254.43,297.52h14.86a2.74,2.74,0,0,1,2.74,2.74v118.5a0,0,0,0,1,0,0H251.69a0,0,0,0,1,0,0V300.26A2.74,2.74,0,0,1,254.43,297.52Z" style="fill: rgb(38, 50, 56); transform-origin: 261.86px 358.14px;" id="elvb78vxoq95b" class="animable"></path><path d="M254.7,314.93H60.57v-8.57H254.7a4.29,4.29,0,0,1,4.29,4.28h0A4.29,4.29,0,0,1,254.7,314.93Z" style="fill: rgb(38, 50, 56); transform-origin: 159.78px 310.645px;" id="el4badpmcjanc" class="animable"></path><g id="elj4ykbu8xn5k"><path d="M254.7,314.93H60.57v-8.57H254.7a4.29,4.29,0,0,1,4.29,4.28h0A4.29,4.29,0,0,1,254.7,314.93Z" style="fill: rgb(255, 255, 255); opacity: 0.2; isolation: isolate; transform-origin: 159.78px 310.645px;" class="animable"></path></g><path d="M254.7,359.07H60.57V350.5H254.7a4.29,4.29,0,0,1,4.29,4.28h0A4.29,4.29,0,0,1,254.7,359.07Z" style="fill: rgb(38, 50, 56); transform-origin: 159.78px 354.785px;" id="elyxqbcijkv9j" class="animable"></path><g id="elmbv2eyvswdd"><path d="M254.7,359.07H60.57V350.5H254.7a4.29,4.29,0,0,1,4.29,4.28h0A4.29,4.29,0,0,1,254.7,359.07Z" style="fill: rgb(255, 255, 255); opacity: 0.2; isolation: isolate; transform-origin: 159.78px 354.785px;" class="animable"></path></g><path d="M254.7,403.21H60.57v-8.57H254.7a4.29,4.29,0,0,1,4.29,4.29h0A4.29,4.29,0,0,1,254.7,403.21Z" style="fill: rgb(38, 50, 56); transform-origin: 159.78px 398.925px;" id="elglqxrb7ap0b" class="animable"></path><g id="elauukn81wylt"><path d="M254.7,403.21H60.57v-8.57H254.7a4.29,4.29,0,0,1,4.29,4.29h0A4.29,4.29,0,0,1,254.7,403.21Z" style="fill: rgb(255, 255, 255); opacity: 0.2; isolation: isolate; transform-origin: 159.78px 398.925px;" class="animable"></path></g><path d="M115.56,409.36c-8.94,0-21-7-27.48-19.95-12.79-25.53-8.53-32.31-7.39-33.53l-.37-3.08c-1.31,2.59-1.85,2.48-2.14,2.42-.62-.13-.62-1-.62-1.3S78,333.49,93,318.31c10.29-10.36,21.28-15.25,33.62-14.93.77,0,1.49,1.24,1.92,2.14.9-.06,2.57-.36,2.73-1.29.1-.56.79-.7,1-.74,3.72-.75,26.36,2.67,38.23,21.41,11,17.29,11.6,24.11,10.21,26.78a2.86,2.86,0,0,1-1.82,1.53l-.71,2.36h1a.51.51,0,0,1,.5.44c2.61,21.8-17.06,38.19-25.64,44.23-8.38,5.9-16.48,9.38-18.12,8.57-3-1.49-4.28-6.68-4.6-8.21h-4.34a10.43,10.43,0,0,1-9.29,8.61A15.73,15.73,0,0,1,115.56,409.36Zm-34-52.89c-.09.08-6.14,5.37,7.46,32.49,6.83,13.64,19.92,20.51,28.64,19.26a9.52,9.52,0,0,0,8.52-8.21.51.51,0,0,1,.5-.41h5.16a.5.5,0,0,1,.49.42c0,.06,1.17,6.41,4.15,7.9.85.42,7.9-2,17.1-8.5,8.37-5.89,27.5-21.8,25.26-42.85h-1.25a.51.51,0,0,1-.41-.2.49.49,0,0,1-.07-.44l1-3.29a.49.49,0,0,1,.45-.36,1.8,1.8,0,0,0,1.37-1.09c1-2,1-8.05-10.18-25.75-9.63-15.19-26.18-19.51-31-20.47-3.71-.74-5.93-.66-6.42-.44-.49,2-3.86,2-4,2a.49.49,0,0,1-.46-.3,5,5,0,0,0-1.2-1.85c-12-.29-22.77,4.48-32.85,14.64-14.3,14.41-15.14,33.44-15.18,34.83a21.93,21.93,0,0,0,1.58-3,.51.51,0,0,1,1,.14l.62,5.06A.5.5,0,0,1,81.52,356.47Z" style="fill: rgb(38, 50, 56); transform-origin: 129.406px 356.363px;" id="elitzvlgc5ib" class="animable"></path><path d="M179.1,349.65a49.63,49.63,0,0,0-45.19-45.19c-1.41-.13-2.83-.19-4.27-.19s-2.86.06-4.27.19a49.63,49.63,0,0,0-45.19,45.19c-.14,1.41-.19,2.83-.19,4.27s.05,2.87.19,4.28a49.63,49.63,0,0,0,45.19,45.19c1.41.13,2.83.19,4.27.19s2.86-.06,4.27-.19A49.63,49.63,0,0,0,179.1,358.2c.14-1.41.19-2.83.19-4.28S179.24,351.06,179.1,349.65Zm-45.19,39.28a35.26,35.26,0,1,1,30.73-30.73A35.47,35.47,0,0,1,133.91,388.93Z" style="fill: rgb(64, 123, 255); transform-origin: 129.64px 353.925px;" id="elvq9fpjcr5dm" class="animable"></path><g id="eltyvwks1cc4d"><path d="M133.91,304.46v14.46a35.19,35.19,0,0,0-8.54,0V304.46c1.41-.13,2.83-.19,4.27-.19S132.5,304.33,133.91,304.46Z" style="fill: rgb(255, 255, 255); opacity: 0.4; isolation: isolate; transform-origin: 129.64px 311.595px;" class="animable"></path></g><g id="elznowrkx4m8"><path d="M133.91,388.93v14.46c-1.41.13-2.83.19-4.27.19s-2.86-.06-4.27-.19V388.93a35.19,35.19,0,0,0,8.54,0Z" style="fill: rgb(255, 255, 255); opacity: 0.4; isolation: isolate; transform-origin: 129.64px 396.255px;" class="animable"></path></g><g id="el8kfsqpnuvc"><path d="M94.38,353.92a35.51,35.51,0,0,0,.26,4.28H80.18c-.14-1.41-.19-2.83-.19-4.28s.05-2.86.19-4.27H94.64A35.47,35.47,0,0,0,94.38,353.92Z" style="fill: rgb(255, 255, 255); opacity: 0.4; isolation: isolate; transform-origin: 87.315px 353.925px;" class="animable"></path></g><g id="elgmgs8pm6mrk"><path d="M179.29,353.92c0,1.45,0,2.87-.19,4.28H164.64a35.28,35.28,0,0,0,0-8.55H179.1C179.24,351.06,179.29,352.48,179.29,353.92Z" style="fill: rgb(255, 255, 255); opacity: 0.4; isolation: isolate; transform-origin: 171.965px 353.925px;" class="animable"></path></g></g><g id="freepik--Character--inject-47" class="animable" style="transform-origin: 198.275px 274.495px;"><g id="freepik--group--inject-47" class="animable" style="transform-origin: 198.275px 274.495px;"><path d="M213.59,200.56l12-4.18a6.87,6.87,0,0,1-.49-2.27c0-1.11,2.77-8.46,2.77-8.46s7,2.63,7.24,3.1-.92,9.84-4.67,10.31l-10.29,5.43Z" style="fill: rgb(235, 179, 118); transform-origin: 224.365px 195.07px;" id="el96yfkse4ll8" class="animable"></path><path d="M200.32,172.42c3.71,1.13,10.7,24.47,11,25.39s9.49-.23,9.49-.23l3.22,9.33s-14.17,5.8-18.91,3.17-7.38-28.75-7.38-28.75Z" style="fill: rgb(64, 123, 255); transform-origin: 210.885px 191.592px;" id="el2o515quxy27" class="animable"></path><g id="elyz9imwhmss"><path d="M200.32,172.42c3.71,1.13,10.7,24.47,11,25.39s9.49-.23,9.49-.23l3.22,9.33s-14.17,5.8-18.91,3.17-7.38-28.75-7.38-28.75Z" style="fill: rgb(255, 255, 255); opacity: 0.6; isolation: isolate; transform-origin: 210.885px 191.592px;" class="animable"></path></g><path d="M167.85,409.79h-9.57a.71.71,0,0,0-.67.54l-1.55,7a1.18,1.18,0,0,0,1.15,1.4c3.09-.05,5.35-.24,9.23-.24,2.4,0,9.62.25,12.93.25s3.73-3.27,2.38-3.57c-6.07-1.32-10.64-3.15-12.58-4.9A1.89,1.89,0,0,0,167.85,409.79Z" style="fill: rgb(38, 50, 56); transform-origin: 169.254px 414.265px;" id="elofku5tf98l" class="animable"></path><path d="M208.42,409.54h-9.57a.71.71,0,0,0-.67.54l-1.55,7a1.18,1.18,0,0,0,1.15,1.4c3.09-.05,5.35-.24,9.23-.24,2.4,0,9.62.25,12.93.25s3.73-3.27,2.38-3.57c-6.07-1.32-10.64-3.15-12.58-4.9A1.89,1.89,0,0,0,208.42,409.54Z" style="fill: rgb(38, 50, 56); transform-origin: 209.824px 414.015px;" id="elueluj0oadoo" class="animable"></path><path d="M162.77,232.46h41.8c4,21.7,16.41,109.82,7.49,178.24H197.91s1.31-103.91-11.18-137.49c-1.44,18-16,137.42-16,137.42h-14.4s2.15-44.93,4.3-87.38C161.94,296.52,162.72,238,162.77,232.46Z" style="fill: rgb(64, 123, 255); transform-origin: 185.773px 321.58px;" id="elsuke8vgol2" class="animable"></path><g id="ela05rbj2y7pp"><path d="M162.77,232.46h41.8c4,21.7,16.41,109.82,7.49,178.24H197.91s1.31-103.91-11.18-137.49c-1.44,18-16,137.42-16,137.42h-14.4s2.15-44.93,4.3-87.38C161.94,296.52,162.72,238,162.77,232.46Z" style="fill: rgb(255, 255, 255); opacity: 0.4; isolation: isolate; transform-origin: 185.773px 321.58px;" class="animable"></path></g><g id="elvvhcl6yf0wo"><path d="M186.73,273.21a112.16,112.16,0,0,1,4.67,18.08c1.17-16-3.51-33-3.51-33Z" style="opacity: 0.2; isolation: isolate; transform-origin: 189.159px 274.79px;" class="animable"></path></g><polygon points="199.16 237.53 205.46 237.45 204.92 232.96 199.16 232.96 199.16 237.53" id="elqsczusytnkq" class="animable" style="transform-origin: 202.31px 235.245px;"></polygon><polygon points="177.87 237.79 197.66 237.55 197.66 232.96 177.87 232.96 177.87 237.79" id="elcrcw280r86" class="animable" style="transform-origin: 187.765px 235.375px;"></polygon><polygon points="176.37 232.96 162.85 232.96 162.85 237.97 176.37 237.81 176.37 232.96" id="el18tpwnrudfc" class="animable" style="transform-origin: 169.61px 235.465px;"></polygon><g id="elqvyuowpfx6q"><rect x="185.74" y="232.09" width="7.78" height="5.61" style="fill: rgb(255, 255, 255); transform-origin: 189.63px 234.895px; transform: rotate(180deg);" class="animable"></rect></g><path d="M162.72,233.77c-1.12-23.94-8.16-57.82-8.16-57.82,19.54-4.71,45.76-3.53,45.76-3.53,5.11,18.28,5,47.78,4.58,61.35Z" style="fill: rgb(64, 123, 255); transform-origin: 179.821px 203.029px;" id="ell5k57we7hdm" class="animable"></path><g id="elc3itbcltxe"><path d="M204.9,233.77H162.72c-.36-7.72-1.33-16.47-2.49-24.78-.2-1.46-.41-2.9-.62-4.32-.48-3.21-1-6.31-1.45-9.2-1-5.88-1.92-10.94-2.59-14.44-.62-3.19-1-5.08-1-5.08,19.54-4.71,45.76-3.53,45.76-3.53a116.86,116.86,0,0,1,3.26,18.2c.56,5,.92,10.11,1.15,15.12C205.25,216.77,205.11,227.16,204.9,233.77Z" style="fill: rgb(255, 255, 255); opacity: 0.6; isolation: isolate; transform-origin: 179.83px 203.029px;" class="animable"></path></g><g id="elakspxjl42b"><path d="M204.73,205.74c-7.33,2.9-25.32,9.73-29.36,8.69-3.23-.84-10.71-6.05-15.76-9.76-.48-3.21-1-6.31-1.45-9.2-1-5.88-1.92-10.94-2.59-14.44a7.32,7.32,0,0,1,3.23-.36s21.45,16.75,25.43,16.62c3.58-.13,16.74-5.58,19.35-6.67C204.14,195.6,204.5,200.73,204.73,205.74Z" style="opacity: 0.2; isolation: isolate; transform-origin: 180.15px 197.58px;" class="animable"></path></g><path d="M170.06,173.31c3.61,3.28,13.92,7.36,13.92,7.36s4.08-6.81,2.92-8.53c-3.26-.54-4.84-2.06-5.49-4a9.51,9.51,0,0,1-.33-3.72,18.53,18.53,0,0,1,.28-2.08l-11-8.11C171.84,159.58,173.6,169.43,170.06,173.31Z" style="fill: rgb(235, 179, 118); transform-origin: 178.584px 167.45px;" id="eldxwy5ubx5p7" class="animable"></path><g id="elku88s0c72j9"><path d="M172.94,159.39c.43,6.56,5.83,8.38,8.47,8.75a9.51,9.51,0,0,1-.33-3.72Z" style="opacity: 0.2; isolation: isolate; transform-origin: 177.175px 163.765px;" class="animable"></path></g><path d="M188.26,136.52s3.85,9.95-.74,15.13-8.83-14-8.83-14Z" style="fill: rgb(38, 50, 56); transform-origin: 184.231px 144.529px;" id="el0nho4lemsih" class="animable"></path><path d="M173.47,163.35A9.57,9.57,0,0,0,185,164.59a10.67,10.67,0,0,0,4.87-6.16c.11-.35.2-.72.28-1.09,1.29-6.89-.29-18.09-7.86-20.74A10.37,10.37,0,0,0,169,142.87a10.26,10.26,0,0,0-.53,4.79C169.32,155.2,169.44,159.67,173.47,163.35Z" style="fill: rgb(235, 179, 118); transform-origin: 179.471px 150.977px;" id="elmk6imjran5d" class="animable"></path><path d="M180.1,149.22c0,.61.38,1.1.79,1.08s.7-.55.68-1.16-.39-1.1-.79-1.08S180.08,148.59,180.1,149.22Z" style="fill: rgb(38, 50, 56); transform-origin: 180.835px 149.18px;" id="elc1dko1uuh26" class="animable"></path><path d="M187.07,148.88c0,.61.39,1.09.79,1.07s.7-.54.67-1.15-.38-1.1-.78-1.08S187.05,148.29,187.07,148.88Z" style="fill: rgb(38, 50, 56); transform-origin: 187.801px 148.835px;" id="elz3m0gsk50f9" class="animable"></path><path d="M184.87,149.29a22.21,22.21,0,0,0,3.21,5.13,3.61,3.61,0,0,1-2.94.7Z" style="fill: rgb(222, 87, 83); transform-origin: 186.475px 152.24px;" id="eljixlj04vzk" class="animable"></path><path d="M189.51,145.77a.37.37,0,0,1-.38,0,2.93,2.93,0,0,0-2.61-.17.36.36,0,1,1-.34-.64h0a3.6,3.6,0,0,1,3.3.18.35.35,0,0,1,.15.49h0A.37.37,0,0,1,189.51,145.77Z" style="fill: rgb(38, 50, 56); transform-origin: 187.832px 145.233px;" id="elwaq8b7jra68" class="animable"></path><path d="M178.59,146.5a.37.37,0,0,1-.21-.06.36.36,0,0,1,0-.51h0a3.61,3.61,0,0,1,3.16-1,.37.37,0,0,1,.26.44h0a.37.37,0,0,1-.43.27h0a2.92,2.92,0,0,0-2.5.81A.35.35,0,0,1,178.59,146.5Z" style="fill: rgb(38, 50, 56); transform-origin: 180.042px 145.694px;" id="el4mdeuqgcimv" class="animable"></path><path d="M173.6,138l.73,3.28a2.49,2.49,0,0,0-.94,3.25c1.34,2.69.17,7.18-1.8,9.12,0,0-.19-1.21-1.18-.82s-.1,6.67,2.18,9.49c0,0-3.28-2.43-5.62-8.89-2.17-6-2.87-11.06-1.84-13.56Z" style="fill: rgb(38, 50, 56); transform-origin: 169.496px 150.16px;" id="elipmq46nfhif" class="animable"></path><path d="M165.5,154a7.22,7.22,0,0,0,4.31,3.44c2.44.69,3.66-1.49,3-3.79-.61-2-2.6-4.93-5.05-4.58S164.4,152,165.5,154Z" style="fill: rgb(235, 179, 118); transform-origin: 169.013px 153.305px;" id="eltet36inybs" class="animable"></path><path d="M184.76,157.09a20.43,20.43,0,0,0-.83,2.76l-.51,0c-2.29-.16-3.3-1-3.73-1.87a2.88,2.88,0,0,1-.26-1.38,3,3,0,0,1,.12-.79A10.82,10.82,0,0,0,184,157C184.46,157.08,184.76,157.09,184.76,157.09Z" style="fill: rgb(38, 50, 56); transform-origin: 182.092px 157.83px;" id="elgb3k7kidabg" class="animable"></path><path d="M184,157l-.26.81c-2.16-.16-3.66-.56-4.29-1.26a3,3,0,0,1,.12-.79A10.82,10.82,0,0,0,184,157Z" style="fill: rgb(255, 255, 255); transform-origin: 181.725px 156.785px;" id="el46fifshwnu5" class="animable"></path><path d="M183.42,159.82c-2.29-.16-3.3-1-3.73-1.87a7.36,7.36,0,0,1,2.52.68A2.72,2.72,0,0,1,183.42,159.82Z" style="fill: rgb(222, 87, 83); transform-origin: 181.555px 158.885px;" id="eljw7t3bc2pkh" class="animable"></path><path d="M174.93,166.33c3.71,2.33,10.73,2.8,13.93-1.92s1.74-12,1.74-12a11.32,11.32,0,0,1-2,4.57c-2-2.23-5.27-.76-5.27-.76a4.75,4.75,0,0,0-2.9-1.63c-1.6-.07-6,.41-6,.41-1.49-.83-1.75-4.9-1.75-4.9l-.84.77S171.22,164,174.93,166.33ZM178.76,156a5.72,5.72,0,0,1,4.38.77s4.27-.64,4.65,2.86-3,4.57-4.4,3.66-.17-2.48-.17-2.48l-1.51-.44a2.74,2.74,0,0,1-4.54,1.29A3.43,3.43,0,0,1,178.76,156Z" style="fill: rgb(38, 50, 56); transform-origin: 181.367px 159.071px;" id="elieih88a6nff" class="animable"></path><path d="M202.91,192.76c-5.34-3.8-16.92-6.09-16.92-6.09,1.87,5,9.21,11.14,9.21,11.14a6.51,6.51,0,0,0-1.67,3.06c-6-2.21-9.8-15.25-9.8-15.25-13.16-1.59-26.48-10.27-26.48-10.27l1.55-.39.68-.17,8.25-2.06c5.18,5.25,16.32,8.86,16.32,8.86a14.9,14.9,0,0,0,2.55-10.16l10.29.75.54,0,1,.07c-1.93,6.19-11.93,12.6-11.93,12.6,9.67,1,19.87,5.14,19.87,5.14Z" style="fill: rgb(64, 123, 255); transform-origin: 181.81px 186.15px;" id="el3nymic1dg71" class="animable"></path><path d="M183.43,184.44l0,.5c-8-.36-19.88-7.11-24.61-10l.68-.17C164.43,177.77,175.8,184.09,183.43,184.44Z" style="fill: rgb(255, 255, 255); transform-origin: 171.125px 179.855px;" id="eloqjdrnrzyqf" class="animable"></path><path d="M197.43,172.22c-.87,2.31-3.55,7.25-11.6,12.16l-.26-.43c7.7-4.69,10.41-9.49,11.32-11.77Z" style="fill: rgb(255, 255, 255); transform-origin: 191.5px 178.28px;" id="el4zqxns4r8s" class="animable"></path><polygon points="183.43 183.51 185.04 182.91 187.24 184.38 186.46 186.77 183.42 186.15 183.43 183.51" style="fill: rgb(64, 123, 255); transform-origin: 185.33px 184.84px;" id="elx90s71q16r" class="animable"></polygon><path d="M184,180.67s2.36-6.86,1.35-10.81l9.47,2.63-6.26,1.26S186.15,178.63,184,180.67Z" style="fill: rgb(64, 123, 255); transform-origin: 189.41px 175.265px;" id="el29cvwbz29r7" class="animable"></path><path d="M184,180.67s-11.07-3.82-15.55-9l-4.29,5.08,7,.33S179.29,180.34,184,180.67Z" style="fill: rgb(64, 123, 255); transform-origin: 174.08px 176.17px;" id="eln0fitdsvoa" class="animable"></path><g id="elvzj030wkqv"><path d="M184,180.67s2.36-6.86,1.35-10.81l9.47,2.63-6.26,1.26S186.15,178.63,184,180.67Z" style="fill: rgb(255, 255, 255); opacity: 0.6; isolation: isolate; transform-origin: 189.41px 175.265px;" class="animable"></path></g><g id="elrgucq0tbzg"><path d="M184,180.67s-11.07-3.82-15.55-9l-4.29,5.08,7,.33S179.29,180.34,184,180.67Z" style="fill: rgb(255, 255, 255); opacity: 0.6; isolation: isolate; transform-origin: 174.08px 176.17px;" class="animable"></path></g><path d="M163.8,143.9a13,13,0,0,1,6.57-11.46c7.13-4.35,14.11-1.68,16.48,3.27Z" style="fill: rgb(64, 123, 255); transform-origin: 175.325px 137.075px;" id="elez9pq2rebl" class="animable"></path><g id="eln5dg6ce91f9"><path d="M163.8,143.9a13,13,0,0,1,6.57-11.46c7.13-4.35,14.11-1.68,16.48,3.27Z" style="fill: rgb(255, 255, 255); opacity: 0.6; isolation: isolate; transform-origin: 175.325px 137.075px;" class="animable"></path></g><path d="M165.47,148.85s7.06-10.9,24.37-9l-.14-8.18s-21.55-2.92-28.8,12.37Z" style="fill: rgb(64, 123, 255); transform-origin: 175.37px 140.148px;" id="el72spfwgq48g" class="animable"></path><g id="el3fcktbus82i"><path d="M165.47,148.85s7.06-10.9,24.37-9l-.14-8.18s-21.55-2.92-28.8,12.37Z" style="fill: rgb(255, 255, 255); opacity: 0.7; isolation: isolate; transform-origin: 175.37px 140.148px;" class="animable"></path></g><path d="M214.76,184.8l-13.46-4.08c-1-.3-2.16.76-2.64,2.36s-.09,3.13.89,3.42L213,190.58c1,.29,2.16-.76,2.64-2.36S215.74,185.09,214.76,184.8Z" style="fill: rgb(38, 50, 56); transform-origin: 207.151px 185.649px;" id="eljz8xo95r6d" class="animable"></path><g id="elgb9u0dsv5om"><path d="M214.76,184.8l-13.46-4.08c-1-.3-2.16.76-2.64,2.36s-.09,3.13.89,3.42L213,190.58c1,.29,2.16-.76,2.64-2.36S215.74,185.09,214.76,184.8Z" style="fill: rgb(255, 255, 255); opacity: 0.2; isolation: isolate; transform-origin: 207.151px 185.649px;" class="animable"></path></g><path d="M230.11,188.65,214.71,184c-1.22-.37-2.7.95-3.31,2.94s-.1,3.92,1.12,4.29l15.4,4.67c1.22.37,2.7-.95,3.31-2.95S231.33,189,230.11,188.65Z" style="fill: rgb(38, 50, 56); transform-origin: 221.315px 189.95px;" id="ellrnbr7ybfcn" class="animable"></path><g id="el3ap53lg9q1e"><path d="M230.11,188.65,214.71,184c-1.22-.37-2.7.95-3.31,2.94s-.1,3.92,1.12,4.29l15.4,4.67c1.22.37,2.7-.95,3.31-2.95S231.33,189,230.11,188.65Z" style="fill: rgb(255, 255, 255); opacity: 0.3; isolation: isolate; transform-origin: 221.315px 189.95px;" class="animable"></path></g><path d="M242.51,191.4l-12.11-3.66c-1.53-.47-3.39,1.19-4.15,3.69s-.13,4.92,1.4,5.38l12.11,3.67c1.53.46,3.39-1.19,4.15-3.7S244,191.87,242.51,191.4Z" style="fill: rgb(38, 50, 56); transform-origin: 235.077px 194.109px;" id="el9qqd8dfe7gp" class="animable"></path><g id="elyy20vbcu7x"><path d="M242.51,191.4l-12.11-3.66c-1.53-.47-3.39,1.19-4.15,3.69s-.13,4.92,1.4,5.38l12.11,3.67c1.53.46,3.39-1.19,4.15-3.7S244,191.87,242.51,191.4Z" style="fill: rgb(255, 255, 255); opacity: 0.4; isolation: isolate; transform-origin: 235.077px 194.109px;" class="animable"></path></g><g id="elm2qxbxqr16"><path d="M243.91,196.78c-.76,2.51-2.62,4.16-4.15,3.7s-2.16-2.87-1.4-5.38,2.62-4.16,4.15-3.7S244.67,194.28,243.91,196.78Z" style="fill: rgb(255, 255, 255); opacity: 0.6; isolation: isolate; transform-origin: 241.135px 195.94px;" class="animable"></path></g><path d="M243.25,196.58c-.58,1.91-2,3.17-3.16,2.81s-1.65-2.18-1.07-4.09,2-3.17,3.16-2.81S243.83,194.67,243.25,196.58Z" style="fill: rgb(38, 50, 56); transform-origin: 241.135px 195.94px;" id="elsq6smuarhp" class="animable"></path><path d="M195.2,197.81l10.26-5.05s2-9.58,2-9.85,6.59,4,7,4.75-2,10-3.16,10.15a6.08,6.08,0,0,1-2.77-.66L198.36,203Z" style="fill: rgb(235, 179, 118); transform-origin: 204.853px 192.949px;" id="elm9ztgkp6is" class="animable"></path><path d="M152.74,187.4c1.07,5.84,12.93,21.62,20.24,25.44S202.31,203,202.31,203l-4.65-10.27s-16.21,8.66-18.24,8.11c-1.36-.37-12.19-13.75-19.1-21-3.34-3.5-5.76-3.91-5.76-3.91S151.15,178.82,152.74,187.4Z" style="fill: rgb(64, 123, 255); transform-origin: 177.314px 194.722px;" id="elqrfbng5c6x" class="animable"></path><g id="elwrw18hfxjk"><path d="M202.31,203s-.68.42-1.84,1.09l-.62.37c-5.95,3.4-21,11.39-26.87,8.35-7.31-3.82-19.17-19.6-20.24-25.44-1.59-8.58,1.82-11.45,1.82-11.45s2.42.41,5.76,3.91c6.91,7.26,17.74,20.64,19.1,21,1.51.41,10.82-4.26,15.53-6.68l1.05-.56,1.66-.87Z" style="fill: rgb(255, 255, 255); opacity: 0.6; isolation: isolate; transform-origin: 177.314px 194.703px;" class="animable"></path></g><path d="M200.47,204.12l-.62.37-4.9-10.3,1.05-.56Z" style="fill: rgb(255, 255, 255); transform-origin: 197.71px 199.06px;" id="elgsr4ertitl" class="animable"></path></g></g><defs>     <filter id="active" height="200%">         <feMorphology in="SourceAlpha" result="DILATED" operator="dilate" radius="2"></feMorphology>                <feFlood flood-color="#32DFEC" flood-opacity="1" result="PINK"></feFlood>        <feComposite in="PINK" in2="DILATED" operator="in" result="OUTLINE"></feComposite>        <feMerge>            <feMergeNode in="OUTLINE"></feMergeNode>            <feMergeNode in="SourceGraphic"></feMergeNode>        </feMerge>    </filter>    <filter id="hover" height="200%">        <feMorphology in="SourceAlpha" result="DILATED" operator="dilate" radius="2"></feMorphology>                <feFlood flood-color="#ff0000" flood-opacity="0.5" result="PINK"></feFlood>        <feComposite in="PINK" in2="DILATED" operator="in" result="OUTLINE"></feComposite>        <feMerge>            <feMergeNode in="OUTLINE"></feMergeNode>            <feMergeNode in="SourceGraphic"></feMergeNode>        </feMerge>            <feColorMatrix type="matrix" values="0   0   0   0   0                0   1   0   0   0                0   0   0   0   0                0   0   0   1   0 "></feColorMatrix>    </filter></defs></svg>